<svg width="25" height="26" viewBox="0 0 25 26" fill="none" xmlns="http://www.w3.org/2000/svg">
<path d="M12.5003 13.5736C11.5334 13.5736 10.6061 13.9577 9.92233 14.6414C9.23861 15.3252 8.85449 16.2525 8.85449 17.2194C8.85449 18.1864 9.23861 19.1137 9.92233 19.7974C10.6061 20.4812 11.5334 20.8653 12.5003 20.8653C13.4673 20.8653 14.3946 20.4812 15.0783 19.7974C15.762 19.1137 16.1462 18.1864 16.1462 17.2194C16.1462 16.2525 15.762 15.3252 15.0783 14.6414C14.3946 13.9577 13.4673 13.5736 12.5003 13.5736ZM10.9378 17.2194C10.9378 16.805 11.1024 16.4076 11.3955 16.1146C11.6885 15.8216 12.0859 15.6569 12.5003 15.6569C12.9147 15.6569 13.3122 15.8216 13.6052 16.1146C13.8982 16.4076 14.0628 16.805 14.0628 17.2194C14.0628 17.6338 13.8982 18.0313 13.6052 18.3243C13.3122 18.6173 12.9147 18.7819 12.5003 18.7819C12.0859 18.7819 11.6885 18.6173 11.3955 18.3243C11.1024 18.0313 10.9378 17.6338 10.9378 17.2194Z" fill="black"/>
<path d="M18.2562 5.88184L14.9448 1.23914L2.76875 10.9662L2.09375 10.9589V10.9693H1.5625V23.4693H23.4375V10.9693H22.4354L20.4417 5.13705L18.2562 5.88184ZM20.2344 10.9693H9.78854L17.5687 8.31726L19.1542 7.80997L20.2344 10.9693ZM16.1979 6.58393L8.16667 9.32143L14.5271 4.24018L16.1979 6.58393ZM3.64583 19.4787V14.9579C4.08531 14.8022 4.48449 14.5503 4.81427 14.2207C5.14405 13.8911 5.39611 13.4921 5.55208 13.0527H19.4479C19.6038 13.4922 19.8559 13.8914 20.1856 14.2212C20.5154 14.551 20.9146 14.803 21.3542 14.9589V19.4798C20.9146 19.6357 20.5154 19.8877 20.1856 20.2175C19.8559 20.5473 19.6038 20.9465 19.4479 21.386H5.55417C5.39811 20.9461 5.1458 20.5466 4.81565 20.2166C4.48549 19.8866 4.08583 19.6345 3.64583 19.4787Z" fill="black"/>
</svg>
