<svg width="74" height="80" viewBox="0 0 74 80" fill="none" xmlns="http://www.w3.org/2000/svg">
<path d="M37 19.1875C24.9915 19.1875 15.2295 28.4219 15.2129 39.7812C15.2129 43.6719 16.3692 47.4688 18.5496 50.7344L19.0616 51.5156L16.8647 59.1094L25.1071 57.0625L25.9 57.5156C29.2366 59.3906 33.0687 60.3906 36.9835 60.3906H37C48.992 60.3906 59.0183 51.1562 59.0183 39.7969C59.0183 34.2969 56.5076 29.125 52.3946 25.2344C48.2652 21.3281 42.8143 19.1875 37 19.1875ZM49.8013 48.625C49.2562 50.0781 46.6464 51.3906 45.3911 51.5625C43.3098 51.8594 41.6911 51.7031 37.5451 50.0156C30.9875 47.3281 26.6929 41.0781 26.3625 40.6719C26.0321 40.2656 23.6866 37.3125 23.6866 34.2656C23.6866 31.2188 25.3714 29.7188 25.9826 29.0938C26.5772 28.4688 27.2875 28.3125 27.7335 28.3125C28.1629 28.3125 28.6089 28.3125 28.9888 28.3281C29.3853 28.3438 29.9304 28.1875 30.4589 29.3906C31.004 30.625 32.3089 33.6719 32.4741 33.9844C32.6393 34.2969 32.7549 34.6562 32.5237 35.0625C31.2683 37.4375 29.9304 37.3438 30.6076 38.4375C33.1348 42.5469 35.6621 43.9688 39.5107 45.7969C40.1714 46.1094 40.5513 46.0625 40.9312 45.6406C41.3112 45.2344 42.5665 43.8281 42.996 43.2188C43.4254 42.5938 43.8714 42.7031 44.4661 42.9062C45.0607 43.1094 48.2817 44.6094 48.9424 44.9219C49.6031 45.2344 50.0326 45.3906 50.1978 45.6406C50.3464 45.9375 50.3464 47.1875 49.8013 48.625ZM66.0714 5H7.92857C3.55134 5 0 8.35938 0 12.5V67.5C0 71.6406 3.55134 75 7.92857 75H66.0714C70.4487 75 74 71.6406 74 67.5V12.5C74 8.35938 70.4487 5 66.0714 5ZM36.9835 64.5625C32.5897 64.5625 28.2786 63.5156 24.4629 61.5469L10.5714 65L14.2879 52.1562C11.992 48.4062 10.7862 44.1406 10.7862 39.7656C10.8027 26.1094 22.5469 15 36.9835 15C43.9871 15 50.5612 17.5781 55.5165 22.2656C60.4554 26.9531 63.4286 33.1719 63.4286 39.7969C63.4286 53.4531 51.4201 64.5625 36.9835 64.5625Z" fill="#38B044"/>
</svg>
