<svg width="25" height="26" viewBox="0 0 25 26" fill="none" xmlns="http://www.w3.org/2000/svg">
<path d="M12.5003 13.5735C11.5334 13.5735 10.6061 13.9576 9.92233 14.6413C9.23861 15.3251 8.85449 16.2524 8.85449 17.2193C8.85449 18.1863 9.23861 19.1136 9.92233 19.7973C10.6061 20.481 11.5334 20.8652 12.5003 20.8652C13.4673 20.8652 14.3946 20.481 15.0783 19.7973C15.762 19.1136 16.1462 18.1863 16.1462 17.2193C16.1462 16.2524 15.762 15.3251 15.0783 14.6413C14.3946 13.9576 13.4673 13.5735 12.5003 13.5735ZM10.9378 17.2193C10.9378 16.8049 11.1024 16.4075 11.3955 16.1145C11.6885 15.8214 12.0859 15.6568 12.5003 15.6568C12.9147 15.6568 13.3122 15.8214 13.6052 16.1145C13.8982 16.4075 14.0628 16.8049 14.0628 17.2193C14.0628 17.6337 13.8982 18.0311 13.6052 18.3242C13.3122 18.6172 12.9147 18.7818 12.5003 18.7818C12.0859 18.7818 11.6885 18.6172 11.3955 18.3242C11.1024 18.0311 10.9378 17.6337 10.9378 17.2193Z" fill="black"/>
<path d="M18.2562 5.88197L14.9448 1.23926L2.76875 10.9663L2.09375 10.959V10.9695H1.5625V23.4695H23.4375V10.9695H22.4354L20.4417 5.13717L18.2562 5.88197ZM20.2344 10.9695H9.78854L17.5687 8.31738L19.1542 7.81009L20.2344 10.9695ZM16.1979 6.58405L8.16667 9.32155L14.5271 4.2403L16.1979 6.58405ZM3.64583 19.4788V14.958C4.08531 14.8023 4.48449 14.5504 4.81427 14.2208C5.14405 13.8912 5.39611 13.4922 5.55208 13.0528H19.4479C19.6038 13.4923 19.8559 13.8916 20.1856 14.2213C20.5154 14.5511 20.9146 14.8031 21.3542 14.959V19.4799C20.9146 19.6358 20.5154 19.8878 20.1856 20.2176C19.8559 20.5474 19.6038 20.9466 19.4479 21.3861H5.55417C5.39811 20.9462 5.1458 20.5467 4.81565 20.2167C4.48549 19.8868 4.08583 19.6347 3.64583 19.4788Z" fill="black"/>
</svg>
