<svg width="21" height="20" viewBox="0 0 21 20" fill="none" xmlns="http://www.w3.org/2000/svg">
<path d="M10.7497 10.4165C9.97613 10.4165 9.23426 10.7238 8.68728 11.2708C8.1403 11.8178 7.83301 12.5596 7.83301 13.3332C7.83301 14.1067 8.1403 14.8486 8.68728 15.3956C9.23426 15.9425 9.97613 16.2498 10.7497 16.2498C11.5232 16.2498 12.2651 15.9425 12.8121 15.3956C13.3591 14.8486 13.6663 14.1067 13.6663 13.3332C13.6663 12.5596 13.3591 11.8178 12.8121 11.2708C12.2651 10.7238 11.5232 10.4165 10.7497 10.4165ZM9.49967 13.3332C9.49967 13.0017 9.63137 12.6837 9.86579 12.4493C10.1002 12.2149 10.4182 12.0832 10.7497 12.0832C11.0812 12.0832 11.3991 12.2149 11.6336 12.4493C11.868 12.6837 11.9997 13.0017 11.9997 13.3332C11.9997 13.6647 11.868 13.9826 11.6336 14.2171C11.3991 14.4515 11.0812 14.5832 10.7497 14.5832C10.4182 14.5832 10.1002 14.4515 9.86579 14.2171C9.63137 13.9826 9.49967 13.6647 9.49967 13.3332Z" fill="black"/>
<path d="M15.355 4.26348L12.7058 0.549316L2.965 8.33098L2.425 8.32515V8.33348H2V18.3335H19.5V8.33348H18.6983L17.1033 3.66765L15.355 4.26348ZM16.9375 8.33348H8.58083L14.805 6.21182L16.0733 5.80598L16.9375 8.33348ZM13.7083 4.82515L7.28333 7.01515L12.3717 2.95015L13.7083 4.82515ZM3.66667 15.141V11.5243C4.01825 11.3997 4.33759 11.1983 4.60141 10.9346C4.86524 10.6709 5.06689 10.3517 5.19167 10.0001H16.3083C16.4331 10.3518 16.6347 10.6712 16.8985 10.935C17.1623 11.1988 17.4817 11.4004 17.8333 11.5251V15.1418C17.4817 15.2665 17.1623 15.4682 16.8985 15.732C16.6347 15.9958 16.4331 16.3152 16.3083 16.6668H5.19333C5.06849 16.3149 4.86664 15.9953 4.60252 15.7313C4.3384 15.4673 4.01867 15.2656 3.66667 15.141Z" fill="black"/>
</svg>
