<svg width="25" height="26" viewBox="0 0 25 26" fill="none" xmlns="http://www.w3.org/2000/svg">
<path d="M12.4997 12.5318C11.809 12.5318 11.1466 12.2575 10.6583 11.7691C10.1699 11.2807 9.89551 10.6183 9.89551 9.92765C9.89551 9.23698 10.1699 8.5746 10.6583 8.08623C11.1466 7.59785 11.809 7.32349 12.4997 7.32349C13.1903 7.32349 13.8527 7.59785 14.3411 8.08623C14.8295 8.5746 15.1038 9.23698 15.1038 9.92765C15.1038 10.2696 15.0365 10.6083 14.9056 10.9242C14.7747 11.2402 14.5829 11.5273 14.3411 11.7691C14.0993 12.0109 13.8122 12.2027 13.4962 12.3336C13.1803 12.4645 12.8417 12.5318 12.4997 12.5318ZM12.4997 2.63599C10.5658 2.63599 8.71114 3.40421 7.34369 4.77167C5.97623 6.13912 5.20801 7.99378 5.20801 9.92765C5.20801 15.3964 12.4997 23.4693 12.4997 23.4693C12.4997 23.4693 19.7913 15.3964 19.7913 9.92765C19.7913 7.99378 19.0231 6.13912 17.6557 4.77167C16.2882 3.40421 14.4335 2.63599 12.4997 2.63599Z" fill="black"/>
</svg>
