<svg width="21" height="21" viewBox="0 0 21 21" fill="none" xmlns="http://www.w3.org/2000/svg">
<path d="M10.2497 10.9165C9.47613 10.9165 8.73426 11.2238 8.18728 11.7708C7.6403 12.3178 7.33301 13.0596 7.33301 13.8332C7.33301 14.6067 7.6403 15.3486 8.18728 15.8956C8.73426 16.4425 9.47613 16.7498 10.2497 16.7498C11.0232 16.7498 11.7651 16.4425 12.3121 15.8956C12.8591 15.3486 13.1663 14.6067 13.1663 13.8332C13.1663 13.0596 12.8591 12.3178 12.3121 11.7708C11.7651 11.2238 11.0232 10.9165 10.2497 10.9165ZM8.99967 13.8332C8.99967 13.5017 9.13137 13.1837 9.36579 12.9493C9.60021 12.7149 9.91815 12.5832 10.2497 12.5832C10.5812 12.5832 10.8991 12.7149 11.1336 12.9493C11.368 13.1837 11.4997 13.5017 11.4997 13.8332C11.4997 14.1647 11.368 14.4826 11.1336 14.7171C10.8991 14.9515 10.5812 15.0832 10.2497 15.0832C9.91815 15.0832 9.60021 14.9515 9.36579 14.7171C9.13137 14.4826 8.99967 14.1647 8.99967 13.8332Z" fill="black"/>
<path d="M14.855 4.76348L12.2058 1.04932L2.465 8.83098L1.925 8.82515V8.83348H1.5V18.8335H19V8.83348H18.1983L16.6033 4.16765L14.855 4.76348ZM16.4375 8.83348H8.08083L14.305 6.71182L15.5733 6.30598L16.4375 8.83348ZM13.2083 5.32515L6.78333 7.51515L11.8717 3.45015L13.2083 5.32515ZM3.16667 15.641V12.0243C3.51825 11.8997 3.83759 11.6983 4.10141 11.4346C4.36524 11.1709 4.56689 10.8517 4.69167 10.5001H15.8083C15.9331 10.8518 16.1347 11.1712 16.3985 11.435C16.6623 11.6988 16.9817 11.9004 17.3333 12.0251V15.6418C16.9817 15.7665 16.6623 15.9682 16.3985 16.232C16.1347 16.4958 15.9331 16.8152 15.8083 17.1668H4.69333C4.56849 16.8149 4.36664 16.4953 4.10252 16.2313C3.8384 15.9673 3.51867 15.7656 3.16667 15.641Z" fill="black"/>
</svg>
