<svg width="25" height="26" viewBox="0 0 25 26" fill="none" xmlns="http://www.w3.org/2000/svg">
<path d="M12.4997 12.5319C11.809 12.5319 11.1466 12.2576 10.6583 11.7692C10.1699 11.2808 9.89551 10.6184 9.89551 9.92777C9.89551 9.23711 10.1699 8.57473 10.6583 8.08635C11.1466 7.59797 11.809 7.32361 12.4997 7.32361C13.1903 7.32361 13.8527 7.59797 14.3411 8.08635C14.8295 8.57473 15.1038 9.23711 15.1038 9.92777C15.1038 10.2698 15.0365 10.6084 14.9056 10.9243C14.7747 11.2403 14.5829 11.5274 14.3411 11.7692C14.0993 12.011 13.8122 12.2028 13.4962 12.3337C13.1803 12.4646 12.8417 12.5319 12.4997 12.5319ZM12.4997 2.63611C10.5658 2.63611 8.71114 3.40434 7.34369 4.77179C5.97623 6.13924 5.20801 7.9939 5.20801 9.92777C5.20801 15.3965 12.4997 23.4694 12.4997 23.4694C12.4997 23.4694 19.7913 15.3965 19.7913 9.92777C19.7913 7.9939 19.0231 6.13924 17.6557 4.77179C16.2882 3.40434 14.4335 2.63611 12.4997 2.63611Z" fill="black"/>
</svg>
