<svg width="31" height="23" viewBox="0 0 31 23" fill="none" xmlns="http://www.w3.org/2000/svg">
<g clip-path="url(#clip0_24_2678)">
<path d="M0.553711 0.25H30.4468V22.75H0.553711V0.25Z" fill="#003399"/>
<path d="M15.5001 3.82983L15.168 4.94094L15.7215 5.05206L15.5001 3.82983Z" fill="#FFCC00"/>
<path d="M15.4999 3.82983L15.832 4.94094L15.2785 5.05206L15.4999 3.82983Z" fill="#FFCC00"/>
<path d="M16.5526 4.59715L15.3968 4.62445L15.4621 5.18657L16.5526 4.59715Z" fill="#FFCC00"/>
<path d="M16.5529 4.59718L15.6019 5.25775L15.326 4.76441L16.5529 4.59718Z" fill="#FFCC00"/>
<path d="M16.15 5.83987L15.7684 4.74518L15.2552 4.98211L16.15 5.83987Z" fill="#FFCC00"/>
<path d="M16.1498 5.83955L15.2304 5.13698L15.6135 4.7203L16.1498 5.83955Z" fill="#FFCC00"/>
<path d="M14.4474 4.59715L15.6032 4.62445L15.5379 5.18657L14.4474 4.59715Z" fill="#FFCC00"/>
<path d="M14.4471 4.59718L15.3981 5.25775L15.674 4.76441L14.4471 4.59718Z" fill="#FFCC00"/>
<path d="M14.85 5.83987L15.2316 4.74518L15.7448 4.98211L14.85 5.83987Z" fill="#FFCC00"/>
<path d="M14.8502 5.83955L15.7696 5.13698L15.3865 4.7203L14.8502 5.83955Z" fill="#FFCC00"/>
<path d="M15.5001 17.1633L15.168 18.2744L15.7215 18.3856L15.5001 17.1633Z" fill="#FFCC00"/>
<path d="M15.4999 17.1633L15.832 18.2744L15.2785 18.3856L15.4999 17.1633Z" fill="#FFCC00"/>
<path d="M16.5526 17.9307L15.3968 17.9579L15.4621 18.5201L16.5526 17.9307Z" fill="#FFCC00"/>
<path d="M16.5529 17.9307L15.6019 18.5912L15.326 18.0979L16.5529 17.9307Z" fill="#FFCC00"/>
<path d="M16.15 19.1734L15.7684 18.0787L15.2552 18.3156L16.15 19.1734Z" fill="#FFCC00"/>
<path d="M16.1498 19.173L15.2304 18.4705L15.6135 18.0538L16.1498 19.173Z" fill="#FFCC00"/>
<path d="M14.4464 17.9307L15.6022 17.9579L15.5369 18.5201L14.4464 17.9307Z" fill="#FFCC00"/>
<path d="M14.4461 17.9307L15.3971 18.5912L15.6731 18.0979L14.4461 17.9307Z" fill="#FFCC00"/>
<path d="M14.849 19.1734L15.2306 18.0787L15.7439 18.3156L14.849 19.1734Z" fill="#FFCC00"/>
<path d="M14.8493 19.173L15.7687 18.4705L15.3855 18.0538L14.8493 19.173Z" fill="#FFCC00"/>
<path d="M8.85754 10.4966L8.52539 11.6077L9.07897 11.7188L8.85754 10.4966Z" fill="#FFCC00"/>
<path d="M8.85731 10.4966L9.18945 11.6077L8.63588 11.7188L8.85731 10.4966Z" fill="#FFCC00"/>
<path d="M9.91 11.2639L8.75426 11.2912L8.81956 11.8533L9.91 11.2639Z" fill="#FFCC00"/>
<path d="M9.91032 11.2639L8.95934 11.9245L8.68337 11.4312L9.91032 11.2639Z" fill="#FFCC00"/>
<path d="M9.50746 12.5066L9.12581 11.4119L8.61258 11.6489L9.50746 12.5066Z" fill="#FFCC00"/>
<path d="M9.50717 12.5063L8.58779 11.8037L8.9709 11.387L9.50717 12.5063Z" fill="#FFCC00"/>
<path d="M7.80485 11.2639L8.96058 11.2912L8.89528 11.8533L7.80485 11.2639Z" fill="#FFCC00"/>
<path d="M7.80453 11.2639L8.7555 11.9245L9.03147 11.4312L7.80453 11.2639Z" fill="#FFCC00"/>
<path d="M8.20738 12.5066L8.58903 11.4119L9.10226 11.6489L8.20738 12.5066Z" fill="#FFCC00"/>
<path d="M8.20767 12.5063L9.12705 11.8037L8.74395 11.387L8.20767 12.5063Z" fill="#FFCC00"/>
<path d="M11.61 6.78364L12.5294 6.08109L12.1463 5.66439L11.61 6.78364Z" fill="#FFCC00"/>
<path d="M11.6097 6.78374L11.9913 5.689L12.5045 5.92596L11.6097 6.78374Z" fill="#FFCC00"/>
<path d="M11.207 5.54133L12.1576 6.20187L12.4338 5.7082L11.207 5.54133Z" fill="#FFCC00"/>
<path d="M11.2071 5.54143L12.3627 5.56827L12.2972 6.13066L11.2071 5.54143Z" fill="#FFCC00"/>
<path d="M12.2595 4.77411L11.9283 5.88476L12.4813 5.99615L12.2595 4.77411Z" fill="#FFCC00"/>
<path d="M12.2601 4.77423L12.5924 5.88525L12.0396 5.99602L12.2601 4.77423Z" fill="#FFCC00"/>
<path d="M12.9111 6.78396L11.9915 6.0806L12.374 5.6644L12.9111 6.78396Z" fill="#FFCC00"/>
<path d="M12.9111 6.78391L12.5287 5.68899L12.016 5.92537L12.9111 6.78391Z" fill="#FFCC00"/>
<path d="M13.3132 5.54196L12.3632 6.20213L12.0866 5.70782L13.3132 5.54196Z" fill="#FFCC00"/>
<path d="M13.3137 5.54179L12.1581 5.56772L12.2241 6.13066L13.3137 5.54179Z" fill="#FFCC00"/>
<path d="M10.4489 9.25518L10.0673 8.16043L9.55408 8.3974L10.4489 9.25518Z" fill="#FFCC00"/>
<path d="M10.4486 9.25507L9.52921 8.55252L9.91233 8.13583L10.4486 9.25507Z" fill="#FFCC00"/>
<path d="M9.14747 9.2554L10.0671 8.55204L9.68459 8.13584L9.14747 9.2554Z" fill="#FFCC00"/>
<path d="M9.14745 9.25535L9.52993 8.16043L10.0426 8.39681L9.14745 9.25535Z" fill="#FFCC00"/>
<path d="M8.74536 8.0134L9.69541 8.67357L9.97199 8.17925L8.74536 8.0134Z" fill="#FFCC00"/>
<path d="M8.74491 8.01347L9.90045 8.0394L9.83449 8.60234L8.74491 8.01347Z" fill="#FFCC00"/>
<path d="M10.8506 8.01252L9.89998 8.67306L9.62386 8.1794L10.8506 8.01252Z" fill="#FFCC00"/>
<path d="M10.8505 8.01262L9.69488 8.03946L9.7604 8.60185L10.8505 8.01262Z" fill="#FFCC00"/>
<path d="M9.79814 7.2453L10.1293 8.35595L9.57631 8.46734L9.79814 7.2453Z" fill="#FFCC00"/>
<path d="M9.79756 7.24518L9.46521 8.35619L10.0181 8.46697L9.79756 7.24518Z" fill="#FFCC00"/>
<path d="M10.8513 14.6949L9.69548 14.7224L9.76066 15.2843L10.8513 14.6949Z" fill="#FFCC00"/>
<path d="M10.8518 14.695L9.9006 15.3556L9.62478 14.8626L10.8518 14.695Z" fill="#FFCC00"/>
<path d="M10.4495 15.9373L10.0687 14.8427L9.55503 15.0802L10.4495 15.9373Z" fill="#FFCC00"/>
<path d="M10.4499 15.9372L9.53064 15.2353L9.9143 14.8182L10.4499 15.9372Z" fill="#FFCC00"/>
<path d="M9.14759 15.9379L10.0673 15.2343L9.68505 14.8183L9.14759 15.9379Z" fill="#FFCC00"/>
<path d="M9.14732 15.9376L9.53013 14.8426L10.0426 15.0788L9.14732 15.9376Z" fill="#FFCC00"/>
<path d="M9.79861 13.9281L10.1286 15.0382L9.5763 15.15L9.79861 13.9281Z" fill="#FFCC00"/>
<path d="M9.79807 13.9281L9.46548 15.039L10.0175 15.1494L9.79807 13.9281Z" fill="#FFCC00"/>
<path d="M8.74489 14.6956L9.90042 14.7215L9.83441 15.2845L8.74489 14.6956Z" fill="#FFCC00"/>
<path d="M8.74535 14.6955L9.69534 15.3557L9.9719 14.8614L8.74535 14.6955Z" fill="#FFCC00"/>
<path d="M13.2547 16.9312L12.0988 16.9588L12.164 17.5206L13.2547 16.9312Z" fill="#FFCC00"/>
<path d="M13.2551 16.9313L12.3039 17.592L12.0281 17.0989L13.2551 16.9313Z" fill="#FFCC00"/>
<path d="M12.8529 18.1739L12.472 17.0793L11.9584 17.3167L12.8529 18.1739Z" fill="#FFCC00"/>
<path d="M12.8532 18.1738L11.934 17.4719L12.3176 17.0548L12.8532 18.1738Z" fill="#FFCC00"/>
<path d="M11.5509 18.1745L12.4706 17.4708L12.0884 17.0548L11.5509 18.1745Z" fill="#FFCC00"/>
<path d="M11.5506 18.1744L11.9334 17.0794L12.4459 17.3156L11.5506 18.1744Z" fill="#FFCC00"/>
<path d="M12.2019 16.1645L12.5319 17.2746L11.9796 17.3863L12.2019 16.1645Z" fill="#FFCC00"/>
<path d="M12.2014 16.1644L11.8688 17.2753L12.4208 17.3857L12.2014 16.1644Z" fill="#FFCC00"/>
<path d="M11.1482 16.932L12.3037 16.9578L12.2377 17.5208L11.1482 16.932Z" fill="#FFCC00"/>
<path d="M11.1487 16.9318L12.0987 17.5921L12.3752 17.0977L11.1487 16.9318Z" fill="#FFCC00"/>
<path d="M22.1425 10.4966L22.4746 11.6077L21.921 11.7188L22.1425 10.4966Z" fill="#FFCC00"/>
<path d="M22.1427 10.4966L21.8105 11.6077L22.3641 11.7188L22.1427 10.4966Z" fill="#FFCC00"/>
<path d="M21.09 11.2639L22.2457 11.2912L22.1804 11.8533L21.09 11.2639Z" fill="#FFCC00"/>
<path d="M21.0897 11.2639L22.0407 11.9245L22.3166 11.4312L21.0897 11.2639Z" fill="#FFCC00"/>
<path d="M21.4925 12.5066L21.8742 11.4119L22.3874 11.6489L21.4925 12.5066Z" fill="#FFCC00"/>
<path d="M21.4928 12.5063L22.4122 11.8037L22.0291 11.387L21.4928 12.5063Z" fill="#FFCC00"/>
<path d="M23.1952 11.2639L22.0394 11.2912L22.1047 11.8533L23.1952 11.2639Z" fill="#FFCC00"/>
<path d="M23.1955 11.2639L22.2445 11.9245L21.9685 11.4312L23.1955 11.2639Z" fill="#FFCC00"/>
<path d="M22.7926 12.5066L22.411 11.4119L21.8977 11.6489L22.7926 12.5066Z" fill="#FFCC00"/>
<path d="M22.7923 12.5063L21.8729 11.8037L22.2561 11.387L22.7923 12.5063Z" fill="#FFCC00"/>
<path d="M19.39 6.78364L18.4706 6.08109L18.8537 5.66439L19.39 6.78364Z" fill="#FFCC00"/>
<path d="M19.3903 6.78374L19.0087 5.689L18.4955 5.92596L19.3903 6.78374Z" fill="#FFCC00"/>
<path d="M19.793 5.54109L18.8424 6.20163L18.5662 5.70796L19.793 5.54109Z" fill="#FFCC00"/>
<path d="M19.7929 5.54118L18.6373 5.56802L18.7028 6.13042L19.7929 5.54118Z" fill="#FFCC00"/>
<path d="M18.7405 4.77387L19.0717 5.88451L18.5187 5.9959L18.7405 4.77387Z" fill="#FFCC00"/>
<path d="M18.7399 4.77399L18.4076 5.885L18.9604 5.99578L18.7399 4.77399Z" fill="#FFCC00"/>
<path d="M18.0889 6.78396L19.0085 6.0806L18.626 5.6644L18.0889 6.78396Z" fill="#FFCC00"/>
<path d="M18.0889 6.78391L18.4713 5.68899L18.984 5.92537L18.0889 6.78391Z" fill="#FFCC00"/>
<path d="M17.6868 5.54196L18.6368 6.20213L18.9134 5.70782L17.6868 5.54196Z" fill="#FFCC00"/>
<path d="M17.6863 5.54179L18.8419 5.56772L18.7759 6.13066L17.6863 5.54179Z" fill="#FFCC00"/>
<path d="M20.5521 9.25518L20.9337 8.16043L21.4469 8.3974L20.5521 9.25518Z" fill="#FFCC00"/>
<path d="M20.5524 9.25507L21.4718 8.55252L21.0886 8.13583L20.5524 9.25507Z" fill="#FFCC00"/>
<path d="M21.8535 9.2554L20.9339 8.55204L21.3164 8.13584L21.8535 9.2554Z" fill="#FFCC00"/>
<path d="M21.8535 9.25535L21.471 8.16043L20.9584 8.39681L21.8535 9.25535Z" fill="#FFCC00"/>
<path d="M22.2556 8.0134L21.3056 8.67357L21.029 8.17925L22.2556 8.0134Z" fill="#FFCC00"/>
<path d="M22.2561 8.01347L21.1005 8.0394L21.1665 8.60234L22.2561 8.01347Z" fill="#FFCC00"/>
<path d="M20.1503 8.01252L21.101 8.67306L21.3771 8.1794L20.1503 8.01252Z" fill="#FFCC00"/>
<path d="M20.1504 8.01262L21.3061 8.03946L21.2406 8.60185L20.1504 8.01262Z" fill="#FFCC00"/>
<path d="M21.2028 7.2453L20.8717 8.35595L21.4247 8.46734L21.2028 7.2453Z" fill="#FFCC00"/>
<path d="M21.2034 7.24518L21.5358 8.35619L20.9829 8.46697L21.2034 7.24518Z" fill="#FFCC00"/>
<path d="M20.1487 14.6949L21.3045 14.7224L21.2393 15.2843L20.1487 14.6949Z" fill="#FFCC00"/>
<path d="M20.1482 14.695L21.0994 15.3556L21.3752 14.8626L20.1482 14.695Z" fill="#FFCC00"/>
<path d="M20.5505 15.9373L20.9313 14.8427L21.445 15.0802L20.5505 15.9373Z" fill="#FFCC00"/>
<path d="M20.5501 15.9372L21.4694 15.2353L21.0857 14.8182L20.5501 15.9372Z" fill="#FFCC00"/>
<path d="M21.8524 15.9379L20.9327 15.2343L21.315 14.8183L21.8524 15.9379Z" fill="#FFCC00"/>
<path d="M21.8527 15.9376L21.4699 14.8426L20.9574 15.0788L21.8527 15.9376Z" fill="#FFCC00"/>
<path d="M21.2014 13.9281L20.8714 15.0382L21.4237 15.15L21.2014 13.9281Z" fill="#FFCC00"/>
<path d="M21.2019 13.9281L21.5345 15.039L20.9825 15.1494L21.2019 13.9281Z" fill="#FFCC00"/>
<path d="M22.2551 14.6956L21.0996 14.7215L21.1656 15.2845L22.2551 14.6956Z" fill="#FFCC00"/>
<path d="M22.2547 14.6955L21.3047 15.3557L21.0281 14.8614L22.2547 14.6955Z" fill="#FFCC00"/>
<path d="M17.7453 16.9312L18.9012 16.9588L18.836 17.5206L17.7453 16.9312Z" fill="#FFCC00"/>
<path d="M17.7449 16.9313L18.6961 17.592L18.9719 17.0989L17.7449 16.9313Z" fill="#FFCC00"/>
<path d="M18.1471 18.1739L18.528 17.0793L19.0416 17.3167L18.1471 18.1739Z" fill="#FFCC00"/>
<path d="M18.1468 18.1738L19.066 17.4719L18.6824 17.0548L18.1468 18.1738Z" fill="#FFCC00"/>
<path d="M19.4491 18.1745L18.5294 17.4708L18.9116 17.0548L19.4491 18.1745Z" fill="#FFCC00"/>
<path d="M19.4494 18.1744L19.0666 17.0794L18.5541 17.3156L19.4494 18.1744Z" fill="#FFCC00"/>
<path d="M18.7981 16.1645L18.4681 17.2746L19.0204 17.3863L18.7981 16.1645Z" fill="#FFCC00"/>
<path d="M18.7986 16.1644L19.1312 17.2753L18.5792 17.3857L18.7986 16.1644Z" fill="#FFCC00"/>
<path d="M19.8518 16.932L18.6963 16.9578L18.7623 17.5208L19.8518 16.932Z" fill="#FFCC00"/>
<path d="M19.8513 16.9318L18.9013 17.5921L18.6248 17.0977L19.8513 16.9318Z" fill="#FFCC00"/>
</g>
<defs>
<clipPath id="clip0_24_2678">
<rect width="29.893" height="22.5" fill="white" transform="translate(0.553711 0.25)"/>
</clipPath>
</defs>
</svg>
