<svg width="21" height="21" viewBox="0 0 21 21" fill="none" xmlns="http://www.w3.org/2000/svg">
<path d="M10.2503 10.0832C9.69779 10.0832 9.16789 9.86368 8.77719 9.47298C8.38649 9.08228 8.16699 8.55237 8.16699 7.99984C8.16699 7.4473 8.38649 6.9174 8.77719 6.5267C9.16789 6.136 9.69779 5.9165 10.2503 5.9165C10.8029 5.9165 11.3328 6.136 11.7235 6.5267C12.1142 6.9174 12.3337 7.4473 12.3337 7.99984C12.3337 8.27342 12.2798 8.54433 12.1751 8.79709C12.0704 9.04986 11.9169 9.27952 11.7235 9.47298C11.53 9.66643 11.3003 9.81989 11.0476 9.92459C10.7948 10.0293 10.5239 10.0832 10.2503 10.0832ZM10.2503 2.1665C8.70323 2.1665 7.2195 2.78109 6.12554 3.87505C5.03157 4.96901 4.41699 6.45274 4.41699 7.99984C4.41699 12.3748 10.2503 18.8332 10.2503 18.8332C10.2503 18.8332 16.0837 12.3748 16.0837 7.99984C16.0837 6.45274 15.4691 4.96901 14.3751 3.87505C13.2812 2.78109 11.7974 2.1665 10.2503 2.1665Z" fill="black"/>
</svg>
