<svg width="31" height="25" viewBox="0 0 31 25" fill="none" xmlns="http://www.w3.org/2000/svg">
<g clip-path="url(#clip0_24_2664)">
<mask id="mask0_24_2664" style="mask-type:luminance" maskUnits="userSpaceOnUse" x="0" y="0" width="31" height="25">
<path d="M0 0.875H31V24.125H0V0.875Z" fill="white"/>
</mask>
<g mask="url(#mask0_24_2664)">
<path fill-rule="evenodd" clip-rule="evenodd" d="M-0.96875 0.875H33.9062V24.125H-0.96875V0.875Z" fill="white"/>
<path fill-rule="evenodd" clip-rule="evenodd" d="M-0.96875 0.875H33.9062V12.5H-0.96875V0.875Z" fill="#DF0000"/>
<path fill-rule="evenodd" clip-rule="evenodd" d="M7.07219 2.82212C6.15469 3.01929 5.33297 3.52612 4.74497 4.25752C4.15697 4.98892 3.83851 5.90035 3.84306 6.83878C3.8476 7.77722 4.17488 8.68552 4.76993 9.41119C5.36498 10.1369 6.19158 10.6357 7.11094 10.824C6.58427 10.9764 6.03269 11.0233 5.48783 10.9621C4.94298 10.9009 4.41557 10.7327 3.93586 10.4672C3.45616 10.2017 3.03358 9.84406 2.69237 9.41488C2.35116 8.9857 2.09803 8.49339 1.94751 7.96618C1.64853 6.90641 1.78133 5.77137 2.31686 4.80924C2.85239 3.8471 3.74708 3.13614 4.80532 2.8318C5.58032 2.60899 6.29719 2.60415 7.07704 2.82212H7.07219Z" fill="white"/>
<path fill-rule="evenodd" clip-rule="evenodd" d="M6.4418 6.20286L6.67914 6.92942L6.04945 6.4838L5.42945 6.93911L5.65711 6.20286L5.03711 5.75239L5.80727 5.74271L6.04945 5.01614L6.29164 5.74271H7.05695L6.4418 6.20286ZM7.28945 8.72161L7.53164 9.45302L6.90195 9.00739L6.27711 9.45786L6.50961 8.72646L5.88961 8.27114L6.65977 8.2663L6.89711 7.53489L7.1393 8.26146H7.9143L7.28945 8.72161ZM10.123 8.70224L10.3604 9.43849L9.7307 8.98802L9.1107 9.43849L9.33836 8.70708L8.71836 8.25661L9.48852 8.24692L9.7307 7.52036L9.97289 8.24692H10.7382L10.123 8.70224ZM10.9659 6.20286L11.2032 6.93427L10.5735 6.48864L9.95352 6.93911L10.186 6.20771L9.56117 5.75239L10.3362 5.74755L10.5687 5.01614L10.8109 5.74271H11.5859L10.9659 6.20286ZM8.7232 4.54145L8.96539 5.27771L8.3357 4.82724L7.71086 5.28255L7.94336 4.5463L7.32336 4.09099L8.08867 4.08614L8.33086 3.35474L8.57305 4.0813H9.34805L8.7232 4.54145Z" fill="white"/>
</g>
</g>
<defs>
<clipPath id="clip0_24_2664">
<rect width="31" height="23.25" fill="white" transform="translate(0 0.875)"/>
</clipPath>
</defs>
</svg>
