<svg width="31" height="23" viewBox="0 0 31 23" fill="none" xmlns="http://www.w3.org/2000/svg">
<g clip-path="url(#clip0_24_2904)">
<path d="M0.166992 0H30.8337V23H0.166992V0Z" fill="#00008B"/>
<path d="M1.96387 0L7.8097 4.33646L13.6316 0H15.5003V1.48542L9.75033 5.77396L15.5003 10.0385V11.5H13.5837L7.83366 7.21146L2.10762 11.5H0.166992V10.0625L5.89303 5.79792L0.166992 1.53333V0H1.96387Z" fill="white"/>
<path d="M10.3253 6.73229L15.5003 10.5417V11.5L9.00762 6.73229H10.3253ZM5.91699 7.21146L6.06074 8.05L1.46074 11.5H0.166992L5.91699 7.21146ZM15.5003 0V0.071875L9.5347 4.57604L9.58262 3.52187L14.3024 0H15.5003ZM0.166992 0L5.89303 4.21667H4.45553L0.166992 1.00625V0Z" fill="#FF0000"/>
<path d="M5.94095 0V11.5H9.77428V0H5.94095ZM0.166992 3.83333V7.66667H15.5003V3.83333H0.166992Z" fill="white"/>
<path d="M0.166992 4.62396V6.92396H15.5003V4.62396H0.166992ZM6.70762 0V11.5H9.00762V0H6.70762Z" fill="#FF0000"/>
<path d="M25.4194 19.0086L24.4371 19.1332L24.5426 20.1155L23.8334 19.4255L23.129 20.1203L23.2248 19.138L22.2426 19.023L23.0715 18.4863L22.5492 17.6478L23.4884 17.9593L23.819 17.0249L24.1592 17.9545L25.0936 17.6334L24.5809 18.4768L25.4146 19.0086H25.4194ZM25.2421 13.3928L25.3715 12.7699L24.9019 12.3386L25.5344 12.2668L25.798 11.687L26.0615 12.2668L26.694 12.3386L26.2244 12.7699L26.3538 13.3928L25.798 13.0765L25.2421 13.3928ZM20.254 10.5178L19.2813 10.6232L19.3676 11.5959L18.6776 10.9011L17.9684 11.5768L18.0834 10.604L17.1155 10.4747L17.9444 9.95717L17.4413 9.11863L18.3661 9.44446L18.7111 8.52925L19.0321 9.45405L19.9617 9.15217L19.4394 9.98113L20.2588 10.5178H20.254ZM30.0194 8.94613L29.018 9.0755L29.1282 10.077L28.4046 9.37259L27.6859 10.0818L27.7865 9.0755L26.7851 8.9605L27.6332 8.40946L27.1013 7.55175L28.0596 7.8728L28.3951 6.92405L28.7401 7.8728L29.6936 7.54217L29.1665 8.40467L30.0194 8.94613ZM25.4146 4.94509L24.4228 5.0553L24.5138 6.05196L23.8094 5.3428L23.0859 6.0328L23.2009 5.04092L22.209 4.90675L23.0571 4.37967L22.5444 3.52196L23.4884 3.85259L23.8382 2.91821L24.164 3.86217L25.1128 3.55071L24.5809 4.39405L25.4146 4.94509ZM11.3798 18.4815L9.18526 18.7403L9.40568 20.9397L7.83401 19.3872L6.25276 20.9301L6.48755 18.7307L4.29297 18.4528L6.15693 17.2645L5.00693 15.3765L7.09609 16.0953L7.85318 14.0157L8.59589 16.1001L10.6898 15.3957L9.52547 17.274L11.3846 18.4768L11.3798 18.4815Z" fill="white"/>
</g>
<defs>
<clipPath id="clip0_24_2904">
<rect width="30.6667" height="23" fill="white" transform="translate(0.166992)"/>
</clipPath>
</defs>
</svg>
