<svg width="21" height="20" viewBox="0 0 21 20" fill="none" xmlns="http://www.w3.org/2000/svg">
<path d="M10.7503 9.58317C10.1978 9.58317 9.66789 9.36368 9.27719 8.97298C8.88649 8.58228 8.66699 8.05237 8.66699 7.49984C8.66699 6.9473 8.88649 6.4174 9.27719 6.0267C9.66789 5.636 10.1978 5.4165 10.7503 5.4165C11.3029 5.4165 11.8328 5.636 12.2235 6.0267C12.6142 6.4174 12.8337 6.9473 12.8337 7.49984C12.8337 7.77342 12.7798 8.04433 12.6751 8.29709C12.5704 8.54986 12.4169 8.77952 12.2235 8.97298C12.03 9.16643 11.8003 9.31989 11.5476 9.42459C11.2948 9.52928 11.0239 9.58317 10.7503 9.58317ZM10.7503 1.6665C9.20323 1.6665 7.7195 2.28109 6.62554 3.37505C5.53157 4.46901 4.91699 5.95274 4.91699 7.49984C4.91699 11.8748 10.7503 18.3332 10.7503 18.3332C10.7503 18.3332 16.5837 11.8748 16.5837 7.49984C16.5837 5.95274 15.9691 4.46901 14.8751 3.37505C13.7812 2.28109 12.2974 1.6665 10.7503 1.6665Z" fill="black"/>
</svg>
