<svg width="21" height="21" viewBox="0 0 21 21" fill="none" xmlns="http://www.w3.org/2000/svg">
<path d="M10.7497 10.9165C9.97613 10.9165 9.23426 11.2238 8.68728 11.7708C8.1403 12.3178 7.83301 13.0596 7.83301 13.8332C7.83301 14.6067 8.1403 15.3486 8.68728 15.8956C9.23426 16.4425 9.97613 16.7498 10.7497 16.7498C11.5232 16.7498 12.2651 16.4425 12.8121 15.8956C13.3591 15.3486 13.6663 14.6067 13.6663 13.8332C13.6663 13.0596 13.3591 12.3178 12.8121 11.7708C12.2651 11.2238 11.5232 10.9165 10.7497 10.9165ZM9.49967 13.8332C9.49967 13.5017 9.63137 13.1837 9.86579 12.9493C10.1002 12.7149 10.4182 12.5832 10.7497 12.5832C11.0812 12.5832 11.3991 12.7149 11.6336 12.9493C11.868 13.1837 11.9997 13.5017 11.9997 13.8332C11.9997 14.1647 11.868 14.4826 11.6336 14.7171C11.3991 14.9515 11.0812 15.0832 10.7497 15.0832C10.4182 15.0832 10.1002 14.9515 9.86579 14.7171C9.63137 14.4826 9.49967 14.1647 9.49967 13.8332Z" fill="black"/>
<path d="M15.355 4.76348L12.7058 1.04932L2.965 8.83098L2.425 8.82515V8.83348H2V18.8335H19.5V8.83348H18.6983L17.1033 4.16765L15.355 4.76348ZM16.9375 8.83348H8.58083L14.805 6.71182L16.0733 6.30598L16.9375 8.83348ZM13.7083 5.32515L7.28333 7.51515L12.3717 3.45015L13.7083 5.32515ZM3.66667 15.641V12.0243C4.01825 11.8997 4.33759 11.6983 4.60141 11.4346C4.86524 11.1709 5.06689 10.8517 5.19167 10.5001H16.3083C16.4331 10.8518 16.6347 11.1712 16.8985 11.435C17.1623 11.6988 17.4817 11.9004 17.8333 12.0251V15.6418C17.4817 15.7665 17.1623 15.9682 16.8985 16.232C16.6347 16.4958 16.4331 16.8152 16.3083 17.1668H5.19333C5.06849 16.8149 4.86664 16.4953 4.60252 16.2313C4.3384 15.9673 4.01867 15.7656 3.66667 15.641Z" fill="black"/>
</svg>
