<svg width="21" height="21" viewBox="0 0 21 21" fill="none" xmlns="http://www.w3.org/2000/svg">
<path d="M10.7503 10.0832C10.1978 10.0832 9.66789 9.86368 9.27719 9.47298C8.88649 9.08228 8.66699 8.55237 8.66699 7.99984C8.66699 7.4473 8.88649 6.9174 9.27719 6.5267C9.66789 6.136 10.1978 5.9165 10.7503 5.9165C11.3029 5.9165 11.8328 6.136 12.2235 6.5267C12.6142 6.9174 12.8337 7.4473 12.8337 7.99984C12.8337 8.27342 12.7798 8.54433 12.6751 8.79709C12.5704 9.04986 12.4169 9.27952 12.2235 9.47298C12.03 9.66643 11.8003 9.81989 11.5476 9.92459C11.2948 10.0293 11.0239 10.0832 10.7503 10.0832ZM10.7503 2.1665C9.20323 2.1665 7.7195 2.78109 6.62554 3.87505C5.53157 4.96901 4.91699 6.45274 4.91699 7.99984C4.91699 12.3748 10.7503 18.8332 10.7503 18.8332C10.7503 18.8332 16.5837 12.3748 16.5837 7.99984C16.5837 6.45274 15.9691 4.96901 14.8751 3.87505C13.7812 2.78109 12.2974 2.1665 10.7503 2.1665Z" fill="black"/>
</svg>
